<?xml version="1.0" standalone="no"?><!DOCTYPE svg PUBLIC "-//W3C//DTD SVG 1.1//EN" "http://www.w3.org/Graphics/SVG/1.1/DTD/svg11.dtd"><svg t="1675593788813" class="icon" viewBox="0 0 1024 1024" version="1.1" xmlns="http://www.w3.org/2000/svg" p-id="4353" xmlns:xlink="http://www.w3.org/1999/xlink" width="200" height="200"><path d="M504.165529 256.097698c166.680317-12.085254 261.90405 13.698689 285.702226 77.336316 35.681751 95.440926 85.325925 328.753034 66.957581 328.753034-12.255906 0-34.580271 35.790347-66.957581 107.355528l-101.506824-62.520632c-57.525188-75.862505-93.455159-113.793757-107.774401-113.793757s-41.825217-3.459578-82.517927-10.363222l6.096926-326.767267z" fill="#F8D02D" p-id="4354"></path><path d="M703.068018 294.23063c-44.090233-24.496298-88.180466-19.593935-132.286212-14.691573H512c-19.593935 0-39.187871 0-58.79732-4.902362-48.977081 0-93.082828-4.902362-132.270698 19.593935-34.285508 19.593935-58.79732 48.992595-73.488892 83.293617-9.789211 19.593935-14.691573 44.090233-24.496298 63.684168-4.886848 24.496298-9.789211 53.894957-14.691573 78.391255-4.902362 24.496298-4.902362 48.977081-9.804724 78.375741 0 24.511811-4.886848 48.992595 0 73.488892 0 14.691573 4.902362 24.496298 9.804724 34.285509 19.593935 44.105747 68.58653 39.203384 97.98519 4.902362 0-9.789211 9.789211-24.496298 14.691573-34.285508 19.593935-39.187871 44.090233-68.58653 73.488893-88.180466 63.684168-44.090233 166.57172-44.090233 230.255888 0 29.39866 19.593935 53.894957 48.992595 73.488893 88.180466 4.902362 9.789211 14.691573 24.496298 19.593935 29.39866 29.39866 34.285508 78.391255 39.187871 97.98519-4.902363 4.902362-9.804725 9.804725-19.593935 9.804724-34.285508v-73.504406c0-24.496298-4.902362-48.977081-9.804724-78.375741-4.902362-24.511811-9.804725-48.992595-19.593935-78.391255-4.902362-24.496298-14.707087-48.992595-24.511812-68.571017-9.773697-24.511811-34.285508-53.910471-68.571016-73.504406z m34.285508 132.286212c0 14.691573-14.691573 29.383146-29.383146 29.383146-14.707087 0-29.39866-14.691573-29.39866-29.383146 0-14.707087 14.691573-29.39866 29.39866-29.39866 19.593935 4.902362 29.383146 14.691573 29.383146 29.39866z m-78.375741 24.496298c14.691573 0 29.383146 14.691573 29.383146 29.383146 0 14.707087-14.691573 29.39866-29.383146 29.398659-14.707087 0-29.39866-14.691573-29.39866-29.398659 0-19.593935 14.691573-29.383146 29.39866-29.383146z m-19.593935-24.511812c0 14.707087-14.707087 29.39866-29.39866 29.39866-14.707087 0-29.39866-14.691573-29.39866-29.383146 0-14.707087 14.691573-29.39866 29.39866-29.39866 14.691573 4.902362 29.39866 14.691573 29.39866 29.39866z m19.593935-78.375741c14.691573 0 29.383146 14.691573 29.383146 29.39866 0 14.691573-14.691573 29.383146-29.383146 29.383146-14.707087 0-29.39866-14.691573-29.39866-29.383146 0-14.707087 14.691573-29.39866 29.39866-29.39866z m-304.722151 0c0-9.804725-1.272132-18.771704 13.497011-19.671504 18.833759-1.132508 16.863506 9.86678 16.863505 19.671504v63.684168h63.699682c9.789211 0 14.691573 4.902362 14.691573 14.707087 0 9.789211-9.789211 19.593935-19.593935 19.593935h-58.79732v63.684168c0 9.804725-9.789211 19.593935-19.593935 19.593936-9.789211 0-14.691573-9.789211-14.691573-19.593936V446.110777h-58.79732c-9.789211 0-14.691573-5.895246-14.691573-15.668942 0-9.804725 9.804725-19.609449 14.691573-19.609449h63.699682l-0.97737-62.706799z m113.654133 19.593936c-9.804725 0-19.593935-9.789211-19.593935-14.691573 0-9.804725 9.789211-19.593935 19.593935-19.593936h88.180466c9.804725 0 19.593935 9.789211 19.593935 19.593936 0 9.789211-9.789211 14.691573-19.593935 14.691573h-88.180466z m0 156.766995c-9.804725 0-19.593935-9.789211-19.593935-14.691573 4.902362-9.804725 9.789211-19.593935 19.593935-19.593935h88.180466c9.804725 0 19.593935 9.789211 19.593935 19.593935 0 9.804725-9.789211 14.691573-19.593935 14.691573h-88.180466z m264.556911-279.248483c44.090233 24.511811 73.473379 63.699682 93.082827 107.789915 9.789211 24.496298 19.593935 48.992595 24.480784 73.488892 9.804725 24.496298 14.707087 53.879443 19.609449 83.278103 4.886848 29.39866 9.789211 53.894957 9.789211 83.278104 0 24.511811 4.902362 53.894957 4.902362 78.391254 0 19.593935-4.902362 39.187871-14.691573 58.79732-29.39866 58.781806-93.082828 78.375741-151.880147 48.977081-19.593935-9.789211-29.39866-19.593935-39.187871-34.285508-9.804725-14.691573-19.593935-24.511811-24.511811-39.18787-14.676059-29.39866-34.285508-53.894957-58.781806-68.586531-44.090233-29.39866-122.465974-29.39866-166.556206 0-24.511811 14.691573-39.203384 39.187871-58.79732 68.571017-4.902362 14.707087-14.691573 29.39866-24.496297 39.203384-9.789211 14.691573-24.496298 24.496298-39.187871 34.285508C222.946792 818.442089 144.571051 759.644769 139.668689 671.464303c0-24.496298 0-53.894957 4.902362-78.391254 0-24.496298 4.902362-53.879443 9.789211-83.278104 0-29.39866 9.804725-53.894957 14.707087-83.278103 4.902362-24.511811 14.691573-48.992595 24.496297-73.488892C218.059944 308.937717 247.44309 269.718819 291.533322 245.238035 350.346156 210.952527 404.225599 215.854889 458.105043 220.741737c19.593935 0 34.285508 4.902362 53.894957 4.902363 19.593935 0 34.285508 0 53.894957-4.902363 58.79732-4.886848 107.774401-9.789211 166.571721 24.511812z" fill="#444444" p-id="4355"></path></svg>