<?xml version="1.0" standalone="no"?><!DOCTYPE svg PUBLIC "-//W3C//DTD SVG 1.1//EN" "http://www.w3.org/Graphics/SVG/1.1/DTD/svg11.dtd"><svg t="1675594125084" class="icon" viewBox="0 0 1024 1024" version="1.1" xmlns="http://www.w3.org/2000/svg" p-id="5348" xmlns:xlink="http://www.w3.org/1999/xlink" width="200" height="200"><path d="M546.304 204.8H477.696C420.352 204.8 373.76 246.272 373.76 296.96v29.184l51.712-1.536V296.96c0-25.6 23.552-46.08 51.712-46.08h69.12c28.672 0 51.712 20.48 51.712 46.08v29.184h51.712V296.96c0.512-50.688-46.08-92.16-103.424-92.16z" fill="#7A7AF9" p-id="5349"></path><path d="M415.232 576.512c2.56 0.512 5.632-1.024 6.656-3.584 18.432-37.376 40.96-57.344 90.112-57.344 49.152 0 70.656 17.408 90.112 57.344 1.024 2.56 3.584 3.584 6.144 3.072 23.552-4.608 138.752-30.72 208.384-89.6 1.536-1.024 2.048-3.072 2.048-5.12v-44.032c0-84.48-69.12-153.6-153.6-153.6H358.4c-84.48 0-153.6 69.12-153.6 153.6V481.28c0 2.048 1.024 3.584 2.048 5.12 69.632 59.392 184.32 84.992 208.384 90.112z" fill="#CCDAFF" p-id="5350"></path><path d="M809.472 541.696c-24.576 17.408-96.768 61.44-217.6 76.288-9.728 1.024-18.432-5.12-20.992-14.848-7.168-25.6-31.232-44.544-59.392-44.544s-51.712 18.944-59.392 44.544c-2.56 9.216-11.264 15.872-20.992 14.848-120.832-14.848-193.024-58.88-217.6-76.288-4.096-3.072-9.728 0-9.728 5.12V665.6c0 84.48 69.12 153.6 153.6 153.6h307.2c84.48 0 153.6-69.12 153.6-153.6v-118.784c1.024-4.608-4.608-7.68-8.704-5.12z" fill="#CCDAFF" p-id="5351"></path><path d="M535.04 658.944c0 12.8-10.24 23.04-23.04 23.04s-23.04-10.24-23.04-23.04v-46.08c0-12.8 10.24-23.04 23.04-23.04s23.04 10.24 23.04 23.04v46.08z" fill="#7A7AF9" p-id="5352"></path></svg>